<?xml version="1.0" encoding="iso-8859-1"?>
<!-- Generator: Adobe Illustrator 16.0.0, SVG Export Plug-In . SVG Version: 6.00 Build 0)  -->
<!DOCTYPE svg PUBLIC "-//W3C//DTD SVG 1.1//EN" "http://www.w3.org/Graphics/SVG/1.1/DTD/svg11.dtd">
<svg xmlns="http://www.w3.org/2000/svg" xmlns:xlink="http://www.w3.org/1999/xlink" version="1.1" id="Capa_1" x="0px" y="0px" width="512px" height="512px" viewBox="0 0 52.169 52.168" style="enable-background:new 0 0 52.169 52.168;" xml:space="preserve">
<g>
	<g>
		<path d="M31.624,4.904l-1.017-0.623c-0.69-0.423-1.493-0.485-2.211-0.259c-0.051-0.053-0.098-0.109-0.159-0.149l-6.09-3.741    c-0.422-0.258-0.971-0.127-1.229,0.294c-0.258,0.421-0.128,0.971,0.294,1.228l5.708,3.508l-1.39,2.263l-5.71-3.507    c-0.421-0.259-0.97-0.127-1.229,0.293c-0.259,0.422-0.127,0.971,0.293,1.229l5.71,3.507l-1.391,2.264l-5.709-3.508    c-0.421-0.258-0.971-0.127-1.229,0.293c-0.26,0.422-0.128,0.971,0.293,1.231l5.71,3.506l-1.39,2.264l-5.709-3.508    c-0.422-0.258-0.971-0.126-1.23,0.294c-0.258,0.422-0.127,0.971,0.295,1.229l5.709,3.507l-1.391,2.264l-5.71-3.508    c-0.42-0.259-0.971-0.127-1.229,0.294c-0.259,0.42-0.127,0.97,0.294,1.229l5.709,3.507l-1.39,2.264l-5.709-3.508    c-0.422-0.259-0.971-0.127-1.229,0.294c-0.26,0.421-0.128,0.97,0.293,1.229l5.71,3.507L6.735,38.027    c-0.774,1.258-0.379,2.912,0.88,3.687l1.016,0.623c1.26,0.774,2.914,0.379,3.687-0.881L32.505,8.592    C33.277,7.333,32.881,5.679,31.624,4.904z M30.981,7.657L10.796,40.521c-0.259,0.418-0.81,0.551-1.229,0.293L8.55,40.191    C8.13,39.931,8,39.38,8.257,38.961L28.443,6.099c0.258-0.419,0.81-0.551,1.229-0.293l1.017,0.623    C31.107,6.688,31.24,7.237,30.981,7.657z" fill="#333333"/>
		<path d="M45.626,9.84c0.187-0.685,0.493-1.831-0.42-2.207c-0.91-0.372-1.498,0.659-1.849,1.272l-13.93,24.456    c-0.098,0.176-0.24,0.174-0.416,0.033c-0.448-0.365-0.946-0.662-1.479-0.881c-3.022-1.229-6.483,0.227-7.715,3.248    c-1.232,3.022,0.225,6.481,3.246,7.714c3.022,1.232,6.481-0.224,7.715-3.245c0.115-0.279,0.208-0.572,0.278-0.871    c0.076-0.322,0.383-0.76,0.604-1.076l0.085-0.118c0.141-0.204,0.288-0.459,0.451-0.761l3.041-5.641    c0.026-0.051,0.055-0.101,0.081-0.146c-0.016,0.045-0.028,0.09-0.044,0.135l-1.938,5.857c-0.104,0.325-0.203,0.64-0.274,0.986    c-0.091,0.438-0.214,1.034-0.414,1.366c-0.152,0.25-0.288,0.523-0.425,0.857c-1.231,3.021,0.226,6.482,3.246,7.717    c0.469,0.188,0.959,0.318,1.461,0.385c0.251,0.033,0.4,0.07,0.508,0.105c0.011,0.069,0.023,0.143,0.046,0.211l0.489,1.651    c0.152,0.524,0.533,0.943,1.039,1.149c0.373,0.151,0.791,0.173,1.179,0.06l0.27-0.077c0.457-0.137,0.834-0.439,1.062-0.859    c0.229-0.42,0.28-0.904,0.146-1.361l-0.49-1.657c-0.019-0.062-0.041-0.126-0.067-0.188c0.059-0.067,0.167-0.181,0.368-0.347    c0.751-0.619,1.342-1.422,1.708-2.319c1.231-3.022-0.226-6.483-3.246-7.716c-0.422-0.172-0.859-0.295-1.306-0.364    c-0.325-0.044-0.312-0.302-0.297-0.371L45.626,9.84z M39.51,50.467l-0.528-1.587c0.034-0.017,0.313-0.131,0.366-0.146    c0.047-0.015,0.338-0.129,0.378-0.142l0.508,1.581L39.51,50.467z M36.568,39.003l0.217,0.059l0.14-0.033    c0.078-0.021,0.151-0.037,0.237-0.045c0.743-0.104,1.45-0.021,2.104,0.246c2.109,0.858,3.128,3.274,2.268,5.385    c-0.329,0.81-0.901,1.479-1.653,1.939c-0.354,0.217-0.719,0.337-0.765,0.348c-0.055,0.012-0.106,0.021-0.153,0.037l-0.265,0.078    c-0.057,0.016-0.11,0.035-0.151,0.055c-0.053,0.017-0.429,0.109-0.846,0.111c-0.535,0.001-1.058-0.101-1.553-0.303    c-2.109-0.859-3.127-3.275-2.269-5.386c0.188-0.454,0.324-0.721,0.498-0.946c0.492-0.646,0.67-1.105,0.572-1.484    c-0.07-0.275-0.068-0.367-0.068-0.369c0.002-0.071,0.047-0.205,0.104-0.371l1.987-6.01c0.504-1.523,0.859-3.438-0.29-3.906    c-1.128-0.459-2.265,1.108-3.017,2.509l-2.793,5.181c-0.033,0.06-0.074,0.144-0.119,0.235c-0.099,0.2-0.246,0.501-0.351,0.631    c-0.043,0.052-0.13,0.137-0.3,0.243c-0.513,0.324-0.685,1.186-0.726,1.441c-0.049,0.311-0.136,0.614-0.254,0.907    c-0.861,2.109-3.278,3.128-5.388,2.269c-2.109-0.859-3.127-3.276-2.267-5.385c0.859-2.111,3.276-3.127,5.386-2.27    c0.696,0.284,1.302,0.752,1.75,1.354c0.549,0.739,1.171,0.775,1.47,0.283l12.7-22.267l-6.487,24.056l-0.091,0.49    C36.117,38.519,36.26,38.877,36.568,39.003z" fill="#333333"/>
		<path d="M26.394,35.307c-1.482-0.604-3.18,0.109-3.784,1.595c-0.605,1.481,0.109,3.181,1.593,3.785    c1.482,0.604,3.181-0.111,3.784-1.596C28.59,37.611,27.876,35.911,26.394,35.307z M27.16,38.755    c-0.419,1.024-1.596,1.521-2.621,1.104c-1.026-0.418-1.521-1.596-1.102-2.619c0.418-1.026,1.594-1.521,2.62-1.104    C27.083,36.553,27.579,37.73,27.16,38.755z" fill="#333333"/>
		<path d="M35.019,41.958c-0.604,1.482,0.108,3.181,1.593,3.785c1.48,0.604,3.181-0.109,3.784-1.594    c0.604-1.481-0.109-3.18-1.595-3.785C37.32,39.761,35.622,40.475,35.019,41.958z M35.844,42.294    c0.418-1.023,1.596-1.521,2.621-1.103s1.521,1.594,1.104,2.621c-0.418,1.024-1.596,1.521-2.62,1.103    C35.923,44.498,35.426,43.321,35.844,42.294z" fill="#333333"/>
	</g>
</g>
<g>
</g>
<g>
</g>
<g>
</g>
<g>
</g>
<g>
</g>
<g>
</g>
<g>
</g>
<g>
</g>
<g>
</g>
<g>
</g>
<g>
</g>
<g>
</g>
<g>
</g>
<g>
</g>
<g>
</g>
</svg>
