<?xml version="1.0" encoding="iso-8859-1"?>
<!-- Generator: Adobe Illustrator 18.0.0, SVG Export Plug-In . SVG Version: 6.00 Build 0)  -->
<!DOCTYPE svg PUBLIC "-//W3C//DTD SVG 1.1//EN" "http://www.w3.org/Graphics/SVG/1.1/DTD/svg11.dtd">
<svg xmlns="http://www.w3.org/2000/svg" xmlns:xlink="http://www.w3.org/1999/xlink" version="1.1" id="Capa_1" x="0px" y="0px" viewBox="0 0 498.5 498.5" style="enable-background:new 0 0 498.5 498.5;" xml:space="preserve" width="512px" height="512px">
<g>
	<path d="M69.006,116.728c9,7.293,20.591,10.999,34.476,10.999c30.108,0,54.603-24.495,54.603-54.603   c0-14.325-4.701-26.481-13.951-36.211c1.638-2.189,2.546-4.431,2.765-6.774c0.742-7.946-6.835-13.884-12.599-17.659   c-10.583-6.931-22.041-10.445-34.055-10.445c-7.077,0-14.355,1.237-21.634,3.677C66.175,9.879,49.96,20.395,41.743,37.408   c-6.606,13.678-6.944,28.93-1.003,45.335C49.139,105.931,65.8,115.137,69.006,116.728z M148.216,84.263h-11.573   c-10.035,0-18.198,8.163-18.198,18.198v5.405c0,2.347,1.903,4.25,4.25,4.25c2.347,0,4.25-1.903,4.25-4.25v-5.405   c0-5.348,4.351-9.698,9.698-9.698h8.538c-1.247,2.637-2.738,5.135-4.442,7.471H134.4c-2.347,0-4.25,1.903-4.25,4.25   c0,1.862,1.205,3.427,2.872,4.001c-8.006,6.699-18.309,10.741-29.54,10.741c-10.558,0-19.47-2.416-26.551-7.188   c3.467-8.435-0.637-20.944-1.638-23.736c-0.446-1.243-1.444-2.207-2.701-2.611c-3.552-1.141-5.938-4.417-5.938-8.151   c0-4.72,3.839-8.559,8.559-8.559c4.72,0,8.559,3.839,8.559,8.559v18.993c0,2.347,1.903,4.25,4.25,4.25h12.368   c2.237,0,4.092-1.735,4.241-3.967c0.102-1.534-0.135-3.432-0.464-6.058c-1.858-14.84-2.23-31.342,16.994-39.328   c7.142-2.966,12.664-5.84,16.749-8.737c7.841,8.189,11.675,18.174,11.675,30.431C149.585,76.964,149.105,80.694,148.216,84.263z    M49.397,41.104c7.069-14.635,21.121-23.716,31.915-27.334c6.406-2.148,12.776-3.236,18.933-3.236   c10.332,0,20.223,3.047,29.398,9.056c5.897,3.862,9.02,7.328,8.793,9.759c-0.167,1.783-2.501,6.741-20.536,14.232   C91.087,54.718,94.342,80.713,95.732,91.814c0.02,0.156,0.039,0.313,0.059,0.469h-3.519V77.54c0-9.406-7.653-17.059-17.059-17.059   c-9.406,0-17.059,7.653-17.059,17.059c0,6.674,3.827,12.613,9.724,15.408c1.396,4.589,2.339,10.489,1.664,14.232   c-5.257-3.511-15.2-11.842-20.81-27.333C43.601,65.678,43.824,52.643,49.397,41.104z" fill="#f5f5f5"/>
	<path d="M484.25,309.341h-4.142c1.1-2.02,1.725-4.334,1.725-6.792v-32.667c0-7.857-6.393-14.25-14.25-14.25h-39.917v-15.916   c0-7.857-6.393-14.25-14.25-14.25H408.5v-7.722c4.999-2.215,8.5-7.217,8.5-13.028v-99.5c0-7.857-6.393-14.25-14.25-14.25h-14.5   c-7.857,0-14.25,6.393-14.25,14.25v87.123l-3.64,1.981l-5.42-9.665c-1.148-2.047-3.739-2.776-5.786-1.628l-14.391,8.07   c-0.983,0.551-1.707,1.471-2.013,2.556c-0.305,1.085-0.167,2.247,0.384,3.23l5.266,9.39l-3.869,2.105l-5.434-9.689   c-1.148-2.047-3.738-2.775-5.786-1.628l-14.391,8.069c-0.983,0.551-1.707,1.471-2.012,2.556c-0.306,1.085-0.168,2.247,0.384,3.23   l5.279,9.415l-3.949,2.149l-5.168-9.215c-1.148-2.046-3.739-2.776-5.786-1.628l-14.391,8.069c-0.983,0.551-1.707,1.471-2.012,2.556   c-0.306,1.085-0.167,2.247,0.384,3.23l5.013,8.94l-7.444,4.052c-1.367,0.744-2.218,2.176-2.218,3.733v67.125h-59.953   c-7.052-7.495-8.729-14.496-8.865-19.12l1.718,1.039c0.669,0.405,1.43,0.613,2.199,0.613c0.34,0,0.681-0.04,1.017-0.123   c1.094-0.27,2.037-0.963,2.62-1.927l13.281-21.963l18.547,11.216c0.964,0.584,2.12,0.761,3.216,0.49   c1.094-0.27,2.037-0.963,2.62-1.927l13.454-22.249c4.065-6.724,1.903-15.502-4.82-19.567l-20.858-12.613   c-3.309-2.099-6.903-2.777-10.397-1.961c-2.951,0.688-5.783,2.48-8.156,5.055c-1.832-2.37-4.091-4.472-6.755-6.176l-80.628-51.565   c-0.035-0.276-0.097-0.553-0.189-0.827c-7.551-22.355-27.56-37.969-48.658-37.969H88.86c-23.613,0-41.053,19.614-44.432,49.968   c-0.017,0.156-0.026,0.313-0.026,0.47v129.138H14.25c-7.857,0-14.25,6.393-14.25,14.25v6c0,7.857,6.393,14.25,14.25,14.25h1.625   v148.375c0,2.347,1.903,4.25,4.25,4.25H485.25c2.347,0,4.25-1.903,4.25-4.25v-149.39c5.264-2.096,9-7.233,9-13.235v-6   C498.5,315.733,492.107,309.341,484.25,309.341z M359.604,192.52l1.968,3.509l-6.977,3.912l-1.968-3.509L359.604,192.52z    M333.762,206.553l1.968,3.509l-6.977,3.913l-1.968-3.509L333.762,206.553z M308.12,221.129l1.968,3.509l-6.977,3.913l-1.968-3.509   L308.12,221.129z M473.333,269.882v32.667c0,3.17-2.58,5.75-5.75,5.75h-2.833v-22.833c0-2.347-1.903-4.25-4.25-4.25   s-4.25,1.903-4.25,4.25v22.833h-40.333c-3.17,0-5.75-2.58-5.75-5.75v-32.667c0-3.17,2.58-5.75,5.75-5.75h51.667   C470.754,264.132,473.333,266.712,473.333,269.882z M383.029,309.341c-3.195,0-6.695-3.097-6.695-6.292v-49.25h15.917   c2.347,0,4.25-1.903,4.25-4.25s-1.903-4.25-4.25-4.25h-15.917v-5.583c0-3.17,2.58-5.75,5.75-5.75h31.333   c3.17,0,5.75,2.58,5.75,5.75v15.916h-3.25c-7.857,0-14.25,6.393-14.25,14.25v32.667c0,2.458,0.626,4.772,1.726,6.792H383.029z    M382.5,105.216c0-3.17,2.58-5.75,5.75-5.75h4.419v85.25c0,2.347,1.903,4.25,4.25,4.25c2.347,0,4.25-1.903,4.25-4.25v-85.25h1.581   c3.17,0,5.75,2.58,5.75,5.75v99.5c0,3.17-2.58,5.75-5.75,5.75h-14.5c-3.17,0-5.75-2.58-5.75-5.75V105.216z M295.5,244.741   l78.5-42.725v2.699c0,7.857,6.393,14.25,14.25,14.25H400v6.5h-17.917c-7.857,0-14.25,6.393-14.25,14.25v63.333   c0,2.239,0.55,4.373,1.497,6.292h-12.461c1.342-2.173,2.131-4.722,2.131-7.458v-16c0-7.857-6.393-14.25-14.25-14.25h-25   c-7.857,0-14.25,6.393-14.25,14.25v16c0,2.736,0.789,5.286,2.131,7.458H295.5V244.741z M333,292.966h17.5v8.917   c0,3.17-2.58,5.75-5.75,5.75h-25c-3.17,0-5.75-2.58-5.75-5.75v-16c0-3.17,2.58-5.75,5.75-5.75h25c2.681,0,4.933,1.847,5.566,4.333   H333c-2.347,0-4.25,1.903-4.25,4.25S330.653,292.966,333,292.966z M153.825,309.341l-3.418-73.756l46.538,29.763   c3.12,1.996,6.588,3.301,10.198,3.881c-1.114,5.182-0.522,11.293,2.979,15.397c-0.817,4.582-1.203,14.111,6.031,24.714H153.825z    M269.581,250.99l-11.254,18.612l-5.186-3.136l13.792-23.797l0.704,0.425C270.349,244.735,271.221,248.277,269.581,250.99z    M237.22,234.249c1.496-2.473,3.599-4.283,5.49-4.725c0.806-0.189,2.092-0.301,3.938,0.877c0.029,0.019,0.059,0.037,0.088,0.055   l12.921,7.814l-13.791,23.797l-6.086-3.681c-0.965-0.585-2.122-0.761-3.216-0.49c-1.094,0.269-2.037,0.963-2.62,1.927   l-13.281,21.963l-3.489-2.11c-2.509-1.886-2.471-7.129-1.195-10.498c7.379-1.265,13.92-5.54,18.04-11.982   c4.465-6.982,5.281-15.268,2.947-22.609C237.05,234.475,237.145,234.372,237.22,234.249z M226.856,252.617   c-3.389,5.299-9.172,8.462-15.472,8.462c-3.492,0-6.901-1-9.86-2.893L89.969,186.841c-8.519-5.449-11.017-16.813-5.569-25.332   c3.389-5.298,9.172-8.462,15.472-8.462c3.492,0,6.901,1,9.86,2.893l111.556,71.346   C229.807,232.734,232.305,244.098,226.856,252.617z M52.902,180.442c2.236-19.512,12.972-42.178,35.958-42.178h7.532   c13.869,0,27.635,8.777,35.765,21.929l-17.846-11.414c-4.329-2.768-9.321-4.231-14.439-4.231c-9.213,0-17.674,4.629-22.633,12.382   c-7.973,12.468-4.317,29.098,8.15,37.072l56.249,35.974l1.622,34.992h-13.27c-2.347,0-4.25,1.903-4.25,4.25   c0,2.347,1.903,4.25,4.25,4.25h13.664l1.663,35.873H52.902V180.442z M24.375,487.966v-45.5H222.25c2.347,0,4.25-1.903,4.25-4.25   s-1.903-4.25-4.25-4.25H24.375v-22.5H78.25c2.347,0,4.25-1.903,4.25-4.25s-1.903-4.25-4.25-4.25H24.375v-59.125H400v34.375   c0,2.347,1.903,4.25,4.25,4.25s4.25-1.903,4.25-4.25v-34.375H437v93.375c0,2.347,1.903,4.25,4.25,4.25s4.25-1.903,4.25-4.25   v-93.375H481v144.125H24.375z M490,329.591c0,3.17-2.58,5.75-5.75,5.75h-470c-3.17,0-5.75-2.58-5.75-5.75v-6   c0-3.17,2.58-5.75,5.75-5.75h470c3.17,0,5.75,2.58,5.75,5.75V329.591z" fill="#f5f5f5"/>
</g>
<g>
</g>
<g>
</g>
<g>
</g>
<g>
</g>
<g>
</g>
<g>
</g>
<g>
</g>
<g>
</g>
<g>
</g>
<g>
</g>
<g>
</g>
<g>
</g>
<g>
</g>
<g>
</g>
<g>
</g>
</svg>
